<svg width="1120" height="318" viewBox="0 0 1120 318" fill="none" xmlns="http://www.w3.org/2000/svg">
<path d="M121.857 0.125656C94.5387 0.114853 65.6039 29.2141 46.2013 46.1733C24.8696 64.8187 3.47854 85.8252 0.40414 115.07C-5.79899 174.1 60.7424 211.092 108.201 229.718C147.055 244.966 166.418 180.98 125.758 167.495C107 161.274 47.7762 138.9 61.6814 111.431C69.6387 95.7121 87.0591 82.7839 99.526 70.5882C113.872 56.5532 134.832 43.6395 140.367 23.8675C143.66 12.1091 134.339 0.129257 121.857 0.125656Z" fill="#F3641F"/>
<path d="M150.591 317.868C177.854 318.388 207.493 289.417 227.154 272.888C247.031 256.177 267.537 237.236 273.042 211.094C285.216 153.27 222.524 111.068 175.688 91.6541C131.911 73.5089 105.101 134.695 150.243 150.624C169.271 157.339 227.475 181.032 212.097 208.414C203.452 223.812 186.358 236.205 173.568 248.192C158.883 261.955 138.028 274.391 132.079 294.126C128.485 306.043 138.352 317.634 150.591 317.868Z" fill="#E62A25"/>
<path d="M326.905 246.549C322.149 243.798 319.777 239.878 319.777 234.8C319.777 231.902 320.591 229.543 322.226 227.729C323.858 225.915 325.864 225.008 328.238 225.008C330.763 225.008 334.253 226.173 338.707 228.492C343.457 230.666 347.8 232.336 351.736 233.495C355.669 234.659 360.68 235.237 366.769 235.237C373.008 235.237 377.868 234.226 381.357 232.192C384.845 230.159 386.593 227.331 386.593 223.702C386.593 221.238 385.886 219.278 384.475 217.828C383.062 216.377 380.541 215.037 376.903 213.8C373.264 212.573 367.734 211.157 360.312 209.557C347.095 206.946 337.63 203.246 331.914 198.461C326.197 193.674 323.341 187.073 323.341 178.656C323.341 172.275 325.267 166.507 329.129 161.357C332.99 156.21 338.296 152.219 345.054 149.39C351.81 146.559 359.492 145.145 368.106 145.145C374.343 145.145 380.357 145.908 386.145 147.432C391.938 148.953 397.132 151.168 401.737 154.069C406.489 156.973 408.863 160.814 408.863 165.601C408.863 168.505 408.047 170.934 406.413 172.894C404.779 174.849 402.774 175.831 400.401 175.831C398.766 175.831 397.171 175.502 395.612 174.849C394.052 174.195 392.084 173.216 389.709 171.912C385.401 169.738 381.692 168.104 378.574 167.015C375.455 165.93 371.593 165.385 366.992 165.385C361.498 165.385 357.157 166.472 353.963 168.645C350.769 170.823 349.176 173.801 349.176 177.57C349.176 181.199 350.808 183.954 354.075 185.84C357.339 187.726 363.651 189.614 373.008 191.496C382.952 193.53 390.746 195.848 396.392 198.461C402.033 201.072 406.08 204.336 408.529 208.251C410.981 212.17 412.206 217.175 412.206 223.268C412.206 233.133 408.008 241.041 399.622 246.99C391.231 252.936 380.056 255.908 366.103 255.908C349.916 255.908 336.85 252.792 326.905 246.549Z" fill="#E62A25"/>
<path d="M524.23 149.064C526.753 151.386 528.015 154.502 528.015 158.42V242.851C528.015 246.625 526.714 249.675 524.117 251.995C521.517 254.313 518.139 255.473 513.984 255.473C509.976 255.473 506.78 254.388 504.408 252.209C502.03 250.035 500.844 247.064 500.844 243.29V237.846C497.426 243.654 492.825 248.111 487.036 251.232C481.245 254.347 474.708 255.908 467.437 255.908C440.71 255.908 427.345 241.26 427.345 211.95V158.42C427.345 154.502 428.607 151.386 431.132 149.064C433.656 146.744 436.997 145.582 441.156 145.582C445.46 145.582 448.875 146.744 451.4 149.064C453.923 151.386 455.187 154.502 455.187 158.42V212.17C455.187 219.712 456.745 225.302 459.865 228.926C462.983 232.556 467.881 234.366 474.563 234.366C482.282 234.366 488.483 231.863 493.16 226.858C497.836 221.852 500.175 215.215 500.175 206.946V158.42C500.175 154.502 501.437 151.386 503.962 149.064C506.486 146.744 509.825 145.582 513.984 145.582C518.29 145.582 521.703 146.744 524.23 149.064Z" fill="#E62A25"/>
<path d="M626.012 225.991C630.911 220.111 633.361 211.81 633.361 201.072C633.361 190.048 630.911 181.487 626.012 175.39C621.111 169.3 614.281 166.252 605.521 166.252C596.612 166.252 589.742 169.23 584.92 175.176C580.095 181.124 577.682 189.614 577.682 200.638C577.682 211.517 580.095 219.932 584.92 225.879C589.742 231.829 596.612 234.8 605.521 234.8C614.281 234.8 621.111 231.863 626.012 225.991ZM637.927 152.109C645.279 156.754 650.991 163.317 655.078 171.802C659.159 180.292 661.2 190.048 661.2 201.072C661.2 212.1 659.159 221.742 655.078 230.013C650.991 238.284 645.311 244.67 638.039 249.164C630.762 253.661 622.372 255.908 612.87 255.908C605.151 255.908 598.244 254.312 592.159 251.122C586.07 247.931 581.39 243.504 578.126 237.846V282.24C578.126 286.011 576.864 288.987 574.341 291.16C571.814 293.338 568.473 294.427 564.319 294.427C560.16 294.427 556.781 293.261 554.186 290.941C551.585 288.623 550.286 285.577 550.286 281.803V158.42C550.286 154.502 551.511 151.386 553.963 149.064C556.412 146.744 559.715 145.582 563.872 145.582C568.029 145.582 571.368 146.744 573.895 149.064C576.418 151.386 577.682 154.502 577.682 158.42V163.858C580.946 157.913 585.661 153.306 591.824 150.041C597.984 146.779 605 145.145 612.87 145.145C622.227 145.145 630.576 147.468 637.927 152.109Z" fill="#E62A25"/>
<path d="M753.185 225.991C758.084 220.111 760.538 211.81 760.538 201.072C760.538 190.048 758.084 181.487 753.185 175.39C748.282 169.3 741.455 166.252 732.698 166.252C723.788 166.252 716.916 169.23 712.094 175.176C707.266 181.124 704.857 189.614 704.857 200.638C704.857 211.517 707.266 219.932 712.094 225.879C716.916 231.829 723.788 234.8 732.698 234.8C741.455 234.8 748.282 231.863 753.185 225.991ZM765.1 152.109C772.449 156.754 778.164 163.317 782.249 171.802C786.333 180.292 788.377 190.048 788.377 201.072C788.377 212.1 786.333 221.742 782.249 230.013C778.164 238.284 772.484 244.67 765.212 249.164C757.935 253.661 749.548 255.908 740.046 255.908C732.321 255.908 725.416 254.312 719.33 251.122C713.243 247.931 708.563 243.504 705.297 237.846V282.24C705.297 286.011 704.038 288.987 701.511 291.16C698.989 293.338 695.644 294.427 691.489 294.427C687.336 294.427 683.952 293.261 681.355 290.941C678.758 288.623 677.458 285.577 677.458 281.803V158.42C677.458 154.502 678.681 151.386 681.136 149.064C683.586 146.744 686.888 145.582 691.045 145.582C695.204 145.582 698.541 146.744 701.07 149.064C703.592 151.386 704.857 154.502 704.857 158.42V163.858C708.119 157.913 712.834 153.306 718.997 150.041C725.156 146.779 732.174 145.145 740.046 145.145C749.398 145.145 757.751 147.468 765.1 152.109Z" fill="#E62A25"/>
<path d="M808.532 252.099C805.932 249.855 804.635 246.625 804.635 242.417V112.504C804.635 108.3 805.932 105.106 808.532 102.932C811.127 100.753 814.434 99.6657 818.441 99.6657C822.453 99.6657 825.792 100.753 828.465 102.932C831.137 105.106 832.474 108.3 832.474 112.504V242.417C832.474 246.625 831.137 249.855 828.465 252.099C825.792 254.347 822.453 255.473 818.441 255.473C814.434 255.473 811.127 254.347 808.532 252.099Z" fill="#E62A25"/>
<path d="M935.262 147.646C937.262 146.419 939.452 145.798 941.83 145.798C945.243 145.798 948.326 146.923 951.071 149.172C953.815 151.42 955.193 154.213 955.193 157.547C955.193 159.147 954.745 160.814 953.857 162.554L893.053 287.029C890.528 291.96 886.593 294.427 881.25 294.427C877.832 294.427 874.828 293.37 872.229 291.27C869.632 289.167 868.335 286.514 868.335 283.329C868.335 281.729 868.775 279.916 869.669 277.889L884.812 246.77L843.384 162.554C842.64 161.107 842.273 159.437 842.273 157.547C842.273 154.213 843.721 151.386 846.618 149.064C849.512 146.744 852.814 145.582 856.529 145.582C859.05 145.582 861.351 146.201 863.432 147.432C865.51 148.665 867.144 150.587 868.335 153.196L899.514 220.441L930.471 153.415C931.659 150.802 933.253 148.882 935.262 147.646Z" fill="#E62A25"/>
<path d="M981.135 251.012C977.35 248.041 975.453 243.578 975.453 237.63V162.773C975.453 156.824 977.35 152.365 981.135 149.39C984.922 146.419 989.633 144.93 995.28 144.93C1000.92 144.93 1005.63 146.419 1009.42 149.39C1013.2 152.365 1015.1 156.824 1015.1 162.773V237.63C1015.1 243.578 1013.2 248.041 1009.42 251.012C1005.63 253.988 1000.92 255.473 995.28 255.473C989.633 255.473 984.922 253.988 981.135 251.012ZM979.352 124.583C975.418 121.174 973.451 116.641 973.451 110.981C973.451 105.324 975.418 100.826 979.352 97.49C983.284 94.1554 988.596 92.4854 995.28 92.4854C1001.81 92.4854 1007.08 94.1554 1011.09 97.49C1015.1 100.826 1017.11 105.324 1017.11 110.981C1017.11 116.641 1015.13 121.174 1011.2 124.583C1007.27 127.993 1001.96 129.693 995.28 129.693C988.596 129.693 983.284 127.993 979.352 124.583Z" fill="#F3641F"/>
<path d="M1120 240.893C1120 245.975 1117.99 249.745 1113.98 252.209C1109.98 254.676 1104.26 255.695 1096.84 255.255L1090.6 254.822C1077.23 253.809 1067.1 249.855 1060.2 242.961C1053.29 236.074 1049.84 226.459 1049.84 214.13V175.612H1043.38C1031.5 175.612 1025.57 170.823 1025.57 161.247C1025.57 151.819 1031.5 147.104 1043.38 147.104H1049.84V132.958C1049.84 127.449 1051.62 123.057 1055.19 119.792C1058.75 116.531 1063.58 114.896 1069.66 114.896C1075.75 114.896 1080.58 116.531 1084.14 119.792C1087.7 123.057 1089.49 127.449 1089.49 132.958V147.104H1101.73C1113.61 147.104 1119.55 151.819 1119.55 161.247C1119.55 170.823 1113.61 175.612 1101.73 175.612H1089.49V217.394C1089.49 220.151 1090.34 222.474 1092.05 224.353C1093.75 226.243 1095.95 227.261 1098.62 227.402L1105.07 227.839C1115.02 228.417 1120 232.77 1120 240.893Z" fill="#F3641F"/>
</svg>
